<svg width="40" height="95" viewBox="0 0 40 95" fill="none" xmlns="http://www.w3.org/2000/svg">
<g opacity="0.7">
<rect width="6.15936" height="6.15936" rx="3.07968" transform="matrix(1.31134e-07 -1 -1 -1.31134e-07 39.4766 74.7961)" fill="#6BB1F8"/>
<rect width="6.15936" height="6.15936" rx="3.07968" transform="matrix(1.31134e-07 -1 -1 -1.31134e-07 39.4766 57.636)" fill="#6BB1F8"/>
<rect width="6.15936" height="6.15936" rx="3.07968" transform="matrix(1.31134e-07 -1 -1 -1.31134e-07 39.4766 40.4758)" fill="#6BB1F8"/>
<rect width="6.15936" height="6.15936" rx="3.07968" transform="matrix(1.31134e-07 -1 -1 -1.31134e-07 39.4766 23.3196)" fill="#6BB1F8"/>
<rect width="6.15936" height="6.15936" rx="3.07968" transform="matrix(1.31134e-07 -1 -1 -1.31134e-07 39.4766 6.15942)" fill="#6BB1F8"/>
</g>
<g opacity="0.7">
<rect width="6.15936" height="6.15936" rx="3.07968" transform="matrix(1.31134e-07 -1 -1 -1.31134e-07 7.15625 74.796)" fill="#6BB1F8"/>
<rect width="6.15936" height="6.15936" rx="3.07968" transform="matrix(1.31134e-07 -1 -1 -1.31134e-07 7.15625 57.6359)" fill="#6BB1F8"/>
<rect width="6.15936" height="6.15936" rx="3.07968" transform="matrix(1.31134e-07 -1 -1 -1.31134e-07 7.15625 40.4757)" fill="#6BB1F8"/>
<rect width="6.15936" height="6.15936" rx="3.07968" transform="matrix(1.31134e-07 -1 -1 -1.31134e-07 7.15625 23.3195)" fill="#6BB1F8"/>
<rect width="6.15936" height="6.15936" rx="3.07968" transform="matrix(1.31134e-07 -1 -1 -1.31134e-07 7.15625 6.1593)" fill="#6BB1F8"/>
</g>
<g opacity="0.7">
<rect width="6.15936" height="6.15936" rx="3.07968" transform="matrix(1.31134e-07 -1 -1 -1.31134e-07 23.3164 94.7961)" fill="#6BB1F8"/>
<rect width="6.15936" height="6.15936" rx="3.07968" transform="matrix(1.31134e-07 -1 -1 -1.31134e-07 23.3164 77.636)" fill="#6BB1F8"/>
<rect width="6.15936" height="6.15936" rx="3.07968" transform="matrix(1.31134e-07 -1 -1 -1.31134e-07 23.3164 60.4758)" fill="#6BB1F8"/>
<rect width="6.15936" height="6.15936" rx="3.07968" transform="matrix(1.31134e-07 -1 -1 -1.31134e-07 23.3164 43.3196)" fill="#6BB1F8"/>
<rect width="6.15936" height="6.15936" rx="3.07968" transform="matrix(1.31134e-07 -1 -1 -1.31134e-07 23.3164 26.1594)" fill="#6BB1F8"/>
</g>
</svg>
