<svg width="33" height="95" viewBox="0 0 33 95" fill="none" xmlns="http://www.w3.org/2000/svg">
<g opacity="0.5">
<rect y="74.7959" width="6.15936" height="6.15936" rx="3.07968" transform="rotate(-90 0 74.7959)" fill="#FFBA00"/>
<rect y="57.6367" width="6.15936" height="6.15936" rx="3.07968" transform="rotate(-90 0 57.6367)" fill="#FFBA00"/>
<rect y="40.4775" width="6.15936" height="6.15936" rx="3.07968" transform="rotate(-90 0 40.4775)" fill="#FFBA00"/>
<rect y="23.3184" width="6.15936" height="6.15936" rx="3.07968" transform="rotate(-90 0 23.3184)" fill="#FFBA00"/>
<rect y="6.15918" width="6.15936" height="6.15936" rx="3.07968" transform="rotate(-90 0 6.15918)" fill="#FFBA00"/>
</g>
<g opacity="0.5">
<rect x="26" y="74.7959" width="6.15936" height="6.15936" rx="3.07968" transform="rotate(-90 26 74.7959)" fill="#FFBA00"/>
<rect x="26" y="57.6367" width="6.15936" height="6.15936" rx="3.07968" transform="rotate(-90 26 57.6367)" fill="#FFBA00"/>
<rect x="26" y="40.4775" width="6.15936" height="6.15936" rx="3.07968" transform="rotate(-90 26 40.4775)" fill="#FFBA00"/>
<rect x="26" y="23.3184" width="6.15936" height="6.15936" rx="3.07968" transform="rotate(-90 26 23.3184)" fill="#FFBA00"/>
<rect x="26" y="6.15918" width="6.15936" height="6.15936" rx="3.07968" transform="rotate(-90 26 6.15918)" fill="#FFBA00"/>
</g>
<g opacity="0.5">
<rect x="13.1592" y="94.7959" width="6.15936" height="6.15936" rx="3.07968" transform="rotate(-90 13.1592 94.7959)" fill="#FFBA00"/>
<rect x="13.1592" y="77.6367" width="6.15936" height="6.15936" rx="3.07968" transform="rotate(-90 13.1592 77.6367)" fill="#FFBA00"/>
<rect x="13.1592" y="60.4775" width="6.15936" height="6.15936" rx="3.07968" transform="rotate(-90 13.1592 60.4775)" fill="#FFBA00"/>
<rect x="13.1592" y="43.3184" width="6.15936" height="6.15936" rx="3.07968" transform="rotate(-90 13.1592 43.3184)" fill="#FFBA00"/>
<rect x="13.1592" y="26.1592" width="6.15936" height="6.15936" rx="3.07968" transform="rotate(-90 13.1592 26.1592)" fill="#FFBA00"/>
</g>
</svg>
